<svg xmlns="http://www.w3.org/2000/svg" viewBox="0 0 512 512" role="img" aria-label="헬시코기 아이콘">
  <rect width="512" height="512" rx="112" fill="#EEF4FF"/>
  <circle cx="256" cy="270" r="150" fill="#FFFFFF"/>
  <path d="M156 178 94 104c-9-10-25-3-24 11l9 118z" fill="#93C5FD"/>
  <path d="m356 178 62-74c9-10 25-3 24 11l-9 118z" fill="#93C5FD"/>
  <circle cx="204" cy="252" r="18" fill="#111827"/>
  <circle cx="308" cy="252" r="18" fill="#111827"/>
  <path d="M230 302c14 18 38 18 52 0" fill="none" stroke="#111827" stroke-width="18" stroke-linecap="round"/>
  <path d="M214 338h84c22 0 40 18 40 40v20H174v-20c0-22 18-40 40-40z" fill="#3182F6"/>
  <path d="M160 396h192" stroke="#111827" stroke-width="16" stroke-linecap="round"/>
</svg>
